%TF.GenerationSoftware,KiCad,Pcbnew,8.0.6*%
%TF.CreationDate,2024-11-01T11:28:07+01:00*%
%TF.ProjectId,vitter-kb,76697474-6572-42d6-9b62-2e6b69636164,rev?*%
%TF.SameCoordinates,Original*%
%TF.FileFunction,OtherDrawing,Comment*%
%FSLAX46Y46*%
G04 Gerber Fmt 4.6, Leading zero omitted, Abs format (unit mm)*
G04 Created by KiCad (PCBNEW 8.0.6) date 2024-11-01 11:28:07*
%MOMM*%
%LPD*%
G01*
G04 APERTURE LIST*
%ADD10C,0.100000*%
G04 APERTURE END LIST*
%TO.C,SW35*%
D10*
X136100000Y-125650000D02*
X153100000Y-125650000D01*
X153100000Y-141650000D01*
X136100000Y-141650000D01*
X136100000Y-125650000D01*
%TO.C,SW34*%
X118100000Y-121650000D02*
X135100000Y-121650000D01*
X135100000Y-137650000D01*
X118100000Y-137650000D01*
X118100000Y-121650000D01*
%TO.C,SW33*%
X100100000Y-117650000D02*
X117100000Y-117650000D01*
X117100000Y-133650000D01*
X100100000Y-133650000D01*
X100100000Y-117650000D01*
%TO.C,SW32*%
X82100000Y-116650000D02*
X99100000Y-116650000D01*
X99100000Y-132650000D01*
X82100000Y-132650000D01*
X82100000Y-116650000D01*
%TO.C,SW31*%
X64100000Y-117650000D02*
X81100000Y-117650000D01*
X81100000Y-133650000D01*
X64100000Y-133650000D01*
X64100000Y-117650000D01*
%TO.C,SW30*%
X46100000Y-122650000D02*
X63100000Y-122650000D01*
X63100000Y-138650000D01*
X46100000Y-138650000D01*
X46100000Y-122650000D01*
%TO.C,SW29*%
X28100000Y-124650000D02*
X45100000Y-124650000D01*
X45100000Y-140650000D01*
X28100000Y-140650000D01*
X28100000Y-124650000D01*
%TO.C,SW28*%
X136100000Y-108650000D02*
X153100000Y-108650000D01*
X153100000Y-124650000D01*
X136100000Y-124650000D01*
X136100000Y-108650000D01*
%TO.C,SW27*%
X118100000Y-104650000D02*
X135100000Y-104650000D01*
X135100000Y-120650000D01*
X118100000Y-120650000D01*
X118100000Y-104650000D01*
%TO.C,SW26*%
X100100000Y-100650000D02*
X117100000Y-100650000D01*
X117100000Y-116650000D01*
X100100000Y-116650000D01*
X100100000Y-100650000D01*
%TO.C,SW25*%
X82100000Y-99650000D02*
X99100000Y-99650000D01*
X99100000Y-115650000D01*
X82100000Y-115650000D01*
X82100000Y-99650000D01*
%TO.C,SW24*%
X64100000Y-100650000D02*
X81100000Y-100650000D01*
X81100000Y-116650000D01*
X64100000Y-116650000D01*
X64100000Y-100650000D01*
%TO.C,SW23*%
X46100000Y-105650000D02*
X63100000Y-105650000D01*
X63100000Y-121650000D01*
X46100000Y-121650000D01*
X46100000Y-105650000D01*
%TO.C,SW22*%
X28100000Y-107650000D02*
X45100000Y-107650000D01*
X45100000Y-123650000D01*
X28100000Y-123650000D01*
X28100000Y-107650000D01*
%TO.C,SW21*%
X136100000Y-91650000D02*
X153100000Y-91650000D01*
X153100000Y-107650000D01*
X136100000Y-107650000D01*
X136100000Y-91650000D01*
%TO.C,SW20*%
X118100000Y-87650000D02*
X135100000Y-87650000D01*
X135100000Y-103650000D01*
X118100000Y-103650000D01*
X118100000Y-87650000D01*
%TO.C,SW19*%
X100100000Y-83650000D02*
X117100000Y-83650000D01*
X117100000Y-99650000D01*
X100100000Y-99650000D01*
X100100000Y-83650000D01*
%TO.C,SW18*%
X82100000Y-82650000D02*
X99100000Y-82650000D01*
X99100000Y-98650000D01*
X82100000Y-98650000D01*
X82100000Y-82650000D01*
%TO.C,SW17*%
X64100000Y-83650000D02*
X81100000Y-83650000D01*
X81100000Y-99650000D01*
X64100000Y-99650000D01*
X64100000Y-83650000D01*
%TO.C,SW16*%
X46100000Y-88650000D02*
X63100000Y-88650000D01*
X63100000Y-104650000D01*
X46100000Y-104650000D01*
X46100000Y-88650000D01*
%TO.C,SW15*%
X28100000Y-90650000D02*
X45100000Y-90650000D01*
X45100000Y-106650000D01*
X28100000Y-106650000D01*
X28100000Y-90650000D01*
%TO.C,SW14*%
X136100000Y-74650000D02*
X153100000Y-74650000D01*
X153100000Y-90650000D01*
X136100000Y-90650000D01*
X136100000Y-74650000D01*
%TO.C,SW13*%
X118100000Y-70650000D02*
X135100000Y-70650000D01*
X135100000Y-86650000D01*
X118100000Y-86650000D01*
X118100000Y-70650000D01*
%TO.C,SW12*%
X100100000Y-66650000D02*
X117100000Y-66650000D01*
X117100000Y-82650000D01*
X100100000Y-82650000D01*
X100100000Y-66650000D01*
%TO.C,SW11*%
X82100000Y-65650000D02*
X99100000Y-65650000D01*
X99100000Y-81650000D01*
X82100000Y-81650000D01*
X82100000Y-65650000D01*
%TO.C,SW10*%
X64100000Y-66650000D02*
X81100000Y-66650000D01*
X81100000Y-82650000D01*
X64100000Y-82650000D01*
X64100000Y-66650000D01*
%TO.C,SW9*%
X46100000Y-71650000D02*
X63100000Y-71650000D01*
X63100000Y-87650000D01*
X46100000Y-87650000D01*
X46100000Y-71650000D01*
%TO.C,SW8*%
X28100000Y-73650000D02*
X45100000Y-73650000D01*
X45100000Y-89650000D01*
X28100000Y-89650000D01*
X28100000Y-73650000D01*
%TO.C,SW7*%
X136100000Y-57650000D02*
X153100000Y-57650000D01*
X153100000Y-73650000D01*
X136100000Y-73650000D01*
X136100000Y-57650000D01*
%TO.C,SW6*%
X118100000Y-53650000D02*
X135100000Y-53650000D01*
X135100000Y-69650000D01*
X118100000Y-69650000D01*
X118100000Y-53650000D01*
%TO.C,SW5*%
X100100000Y-49650000D02*
X117100000Y-49650000D01*
X117100000Y-65650000D01*
X100100000Y-65650000D01*
X100100000Y-49650000D01*
%TO.C,SW4*%
X82100000Y-48650000D02*
X99100000Y-48650000D01*
X99100000Y-64650000D01*
X82100000Y-64650000D01*
X82100000Y-48650000D01*
%TO.C,SW3*%
X64100000Y-49650000D02*
X81100000Y-49650000D01*
X81100000Y-65650000D01*
X64100000Y-65650000D01*
X64100000Y-49650000D01*
%TO.C,SW2*%
X46100000Y-54650000D02*
X63100000Y-54650000D01*
X63100000Y-70650000D01*
X46100000Y-70650000D01*
X46100000Y-54650000D01*
%TO.C,SW1*%
X28100000Y-56650000D02*
X45100000Y-56650000D01*
X45100000Y-72650000D01*
X28100000Y-72650000D01*
X28100000Y-56650000D01*
%TD*%
M02*
