M48
; DRILL file {KiCad 8.0.6} date 2024-11-06T21:34:13+0100
; FORMAT={-:-/ absolute / metric / decimal}
; #@! TF.CreationDate,2024-11-06T21:34:13+01:00
; #@! TF.GenerationSoftware,Kicad,Pcbnew,8.0.6
; #@! TF.FileFunction,NonPlated,1,2,NPTH
FMAT,2
METRIC
; #@! TA.AperFunction,NonPlated,NPTH,ComponentDrill
T1C0.800
; #@! TA.AperFunction,NonPlated,NPTH,ComponentDrill
T2C0.991
; #@! TA.AperFunction,NonPlated,NPTH,ComponentDrill
T3C1.702
; #@! TA.AperFunction,NonPlated,NPTH,ComponentDrill
T4C3.000
; #@! TA.AperFunction,NonPlated,NPTH,ComponentDrill
T5C3.429
%
G90
G05
T1
X126.68Y-44.3
X126.68Y-51.3
X131.28Y-44.3
X131.28Y-51.3
T2
X31.38Y-45.45
X31.38Y-62.45
X31.38Y-79.45
X31.38Y-96.45
X31.38Y-113.45
X31.38Y-130.45
X41.82Y-45.45
X41.82Y-62.45
X41.82Y-79.45
X41.82Y-96.45
X41.82Y-113.45
X41.82Y-130.45
X49.38Y-41.45
X49.38Y-58.45
X49.38Y-75.45
X49.38Y-92.45
X49.38Y-109.45
X49.38Y-126.45
X59.82Y-41.45
X59.82Y-58.45
X59.82Y-75.45
X59.82Y-92.45
X59.82Y-109.45
X59.82Y-126.45
X67.38Y-38.45
X67.38Y-55.45
X67.38Y-72.45
X67.38Y-89.45
X67.38Y-106.45
X67.38Y-123.45
X77.82Y-38.45
X77.82Y-55.45
X77.82Y-72.45
X77.82Y-89.45
X77.82Y-106.45
X77.82Y-123.45
X85.38Y-37.45
X85.38Y-54.45
X85.38Y-71.45
X85.38Y-88.45
X85.38Y-105.45
X85.38Y-122.45
X95.82Y-37.45
X95.82Y-54.45
X95.82Y-71.45
X95.82Y-88.45
X95.82Y-105.45
X95.82Y-122.45
X103.38Y-61.45
X103.38Y-78.45
X103.38Y-95.45
X103.38Y-112.45
X103.38Y-129.45
X113.82Y-61.45
X113.82Y-78.45
X113.82Y-95.45
X113.82Y-112.45
X113.82Y-129.45
X121.38Y-63.45
X121.38Y-80.45
X121.38Y-97.45
X121.38Y-114.45
X121.38Y-131.45
X131.82Y-63.45
X131.82Y-80.45
X131.82Y-97.45
X131.82Y-114.45
X131.82Y-131.45
X139.38Y-50.45
X139.38Y-67.45
X139.38Y-84.45
X139.38Y-101.45
X139.38Y-118.45
X139.38Y-135.45
X149.82Y-50.45
X149.82Y-67.45
X149.82Y-84.45
X149.82Y-101.45
X149.82Y-118.45
X149.82Y-135.45
T3
X31.1Y-49.65
X31.1Y-66.65
X31.1Y-83.65
X31.1Y-100.65
X31.1Y-117.65
X31.1Y-134.65
X42.1Y-49.65
X42.1Y-66.65
X42.1Y-83.65
X42.1Y-100.65
X42.1Y-117.65
X42.1Y-134.65
X49.1Y-45.65
X49.1Y-62.65
X49.1Y-79.65
X49.1Y-96.65
X49.1Y-113.65
X49.1Y-130.65
X60.1Y-45.65
X60.1Y-62.65
X60.1Y-79.65
X60.1Y-96.65
X60.1Y-113.65
X60.1Y-130.65
X67.1Y-42.65
X67.1Y-59.65
X67.1Y-76.65
X67.1Y-93.65
X67.1Y-110.65
X67.1Y-127.65
X78.1Y-42.65
X78.1Y-59.65
X78.1Y-76.65
X78.1Y-93.65
X78.1Y-110.65
X78.1Y-127.65
X85.1Y-41.65
X85.1Y-58.65
X85.1Y-75.65
X85.1Y-92.65
X85.1Y-109.65
X85.1Y-126.65
X96.1Y-41.65
X96.1Y-58.65
X96.1Y-75.65
X96.1Y-92.65
X96.1Y-109.65
X96.1Y-126.65
X103.1Y-65.65
X103.1Y-82.65
X103.1Y-99.65
X103.1Y-116.65
X103.1Y-133.65
X114.1Y-65.65
X114.1Y-82.65
X114.1Y-99.65
X114.1Y-116.65
X114.1Y-133.65
X121.1Y-67.65
X121.1Y-84.65
X121.1Y-101.65
X121.1Y-118.65
X121.1Y-135.65
X132.1Y-67.65
X132.1Y-84.65
X132.1Y-101.65
X132.1Y-118.65
X132.1Y-135.65
X139.1Y-54.65
X139.1Y-71.65
X139.1Y-88.65
X139.1Y-105.65
X139.1Y-122.65
X139.1Y-139.65
X150.1Y-54.65
X150.1Y-71.65
X150.1Y-88.65
X150.1Y-105.65
X150.1Y-122.65
X150.1Y-139.65
T4
X31.6Y-53.4
X31.6Y-70.4
X31.6Y-87.4
X31.6Y-104.4
X31.6Y-121.4
X31.6Y-138.4
X36.6Y-55.6
X36.6Y-72.6
X36.6Y-89.6
X36.6Y-106.6
X36.6Y-123.6
X36.6Y-140.6
X41.6Y-53.4
X41.6Y-70.4
X41.6Y-87.4
X41.6Y-104.4
X41.6Y-121.4
X41.6Y-138.4
X49.6Y-49.4
X49.6Y-66.4
X49.6Y-83.4
X49.6Y-100.4
X49.6Y-117.4
X49.6Y-134.4
X54.6Y-51.6
X54.6Y-68.6
X54.6Y-85.6
X54.6Y-102.6
X54.6Y-119.6
X54.6Y-136.6
X59.6Y-49.4
X59.6Y-66.4
X59.6Y-83.4
X59.6Y-100.4
X59.6Y-117.4
X59.6Y-134.4
X67.6Y-46.4
X67.6Y-63.4
X67.6Y-80.4
X67.6Y-97.4
X67.6Y-114.4
X67.6Y-131.4
X72.6Y-48.6
X72.6Y-65.6
X72.6Y-82.6
X72.6Y-99.6
X72.6Y-116.6
X72.6Y-133.6
X77.6Y-46.4
X77.6Y-63.4
X77.6Y-80.4
X77.6Y-97.4
X77.6Y-114.4
X77.6Y-131.4
X85.6Y-45.4
X85.6Y-62.4
X85.6Y-79.4
X85.6Y-96.4
X85.6Y-113.4
X85.6Y-130.4
X90.6Y-47.6
X90.6Y-64.6
X90.6Y-81.6
X90.6Y-98.6
X90.6Y-115.6
X90.6Y-132.6
X95.6Y-45.4
X95.6Y-62.4
X95.6Y-79.4
X95.6Y-96.4
X95.6Y-113.4
X95.6Y-130.4
X103.6Y-69.4
X103.6Y-86.4
X103.6Y-103.4
X103.6Y-120.4
X103.6Y-137.4
X108.6Y-71.6
X108.6Y-88.6
X108.6Y-105.6
X108.6Y-122.6
X108.6Y-139.6
X113.6Y-69.4
X113.6Y-86.4
X113.6Y-103.4
X113.6Y-120.4
X113.6Y-137.4
X121.6Y-71.4
X121.6Y-88.4
X121.6Y-105.4
X121.6Y-122.4
X121.6Y-139.4
X126.6Y-73.6
X126.6Y-90.6
X126.6Y-107.6
X126.6Y-124.6
X126.6Y-141.6
X131.6Y-71.4
X131.6Y-88.4
X131.6Y-105.4
X131.6Y-122.4
X131.6Y-139.4
X139.6Y-58.4
X139.6Y-75.4
X139.6Y-92.4
X139.6Y-109.4
X139.6Y-126.4
X139.6Y-143.4
X144.6Y-60.6
X144.6Y-77.6
X144.6Y-94.6
X144.6Y-111.6
X144.6Y-128.6
X144.6Y-145.6
X149.6Y-58.4
X149.6Y-75.4
X149.6Y-92.4
X149.6Y-109.4
X149.6Y-126.4
X149.6Y-143.4
T5
X36.6Y-49.65
X36.6Y-66.65
X36.6Y-83.65
X36.6Y-100.65
X36.6Y-117.65
X36.6Y-134.65
X54.6Y-45.65
X54.6Y-62.65
X54.6Y-79.65
X54.6Y-96.65
X54.6Y-113.65
X54.6Y-130.65
X72.6Y-42.65
X72.6Y-59.65
X72.6Y-76.65
X72.6Y-93.65
X72.6Y-110.65
X72.6Y-127.65
X90.6Y-41.65
X90.6Y-58.65
X90.6Y-75.65
X90.6Y-92.65
X90.6Y-109.65
X90.6Y-126.65
X108.6Y-65.65
X108.6Y-82.65
X108.6Y-99.65
X108.6Y-116.65
X108.6Y-133.65
X126.6Y-67.65
X126.6Y-84.65
X126.6Y-101.65
X126.6Y-118.65
X126.6Y-135.65
X144.6Y-54.65
X144.6Y-71.65
X144.6Y-88.65
X144.6Y-105.65
X144.6Y-122.65
X144.6Y-139.65
M30
