G04 #@! TF.GenerationSoftware,KiCad,Pcbnew,8.0.6*
G04 #@! TF.CreationDate,2024-11-06T21:34:11+01:00*
G04 #@! TF.ProjectId,vitter-kb,76697474-6572-42d6-9b62-2e6b69636164,rev?*
G04 #@! TF.SameCoordinates,Original*
G04 #@! TF.FileFunction,Soldermask,Top*
G04 #@! TF.FilePolarity,Negative*
%FSLAX46Y46*%
G04 Gerber Fmt 4.6, Leading zero omitted, Abs format (unit mm)*
G04 Created by KiCad (PCBNEW 8.0.6) date 2024-11-06 21:34:11*
%MOMM*%
%LPD*%
G01*
G04 APERTURE LIST*
%ADD10C,1.701800*%
%ADD11C,0.990600*%
%ADD12C,3.000000*%
%ADD13C,3.429000*%
%ADD14R,2.600000X2.600000*%
%ADD15R,1.600000X1.200000*%
%ADD16C,0.800000*%
%ADD17O,1.600000X2.000000*%
%ADD18C,1.524000*%
G04 APERTURE END LIST*
D10*
X121100000Y-101650000D03*
D11*
X121380000Y-97450000D03*
D12*
X121600000Y-105400000D03*
D13*
X126600000Y-101650000D03*
D12*
X126600000Y-107600000D03*
X131600000Y-105400000D03*
D11*
X131820000Y-97450000D03*
D10*
X132100000Y-101650000D03*
D14*
X123325000Y-107600000D03*
X134875000Y-105400000D03*
D10*
X49100000Y-62650000D03*
D11*
X49380000Y-58450000D03*
D12*
X49600000Y-66400000D03*
D13*
X54600000Y-62650000D03*
D12*
X54600000Y-68600000D03*
X59600000Y-66400000D03*
D11*
X59820000Y-58450000D03*
D10*
X60100000Y-62650000D03*
D14*
X51325000Y-68600000D03*
X62875000Y-66400000D03*
D10*
X85100000Y-126650000D03*
D11*
X85380000Y-122450000D03*
D12*
X85600000Y-130400000D03*
D13*
X90600000Y-126650000D03*
D12*
X90600000Y-132600000D03*
X95600000Y-130400000D03*
D11*
X95820000Y-122450000D03*
D10*
X96100000Y-126650000D03*
D14*
X87325000Y-132600000D03*
X98875000Y-130400000D03*
D10*
X121100000Y-118650000D03*
D11*
X121380000Y-114450000D03*
D12*
X121600000Y-122400000D03*
D13*
X126600000Y-118650000D03*
D12*
X126600000Y-124600000D03*
X131600000Y-122400000D03*
D11*
X131820000Y-114450000D03*
D10*
X132100000Y-118650000D03*
D14*
X123325000Y-124600000D03*
X134875000Y-122400000D03*
D10*
X103100000Y-116650000D03*
D11*
X103380000Y-112450000D03*
D12*
X103600000Y-120400000D03*
D13*
X108600000Y-116650000D03*
D12*
X108600000Y-122600000D03*
X113600000Y-120400000D03*
D11*
X113820000Y-112450000D03*
D10*
X114100000Y-116650000D03*
D14*
X105325000Y-122600000D03*
X116875000Y-120400000D03*
D10*
X103100000Y-133650000D03*
D11*
X103380000Y-129450000D03*
D12*
X103600000Y-137400000D03*
D13*
X108600000Y-133650000D03*
D12*
X108600000Y-139600000D03*
X113600000Y-137400000D03*
D11*
X113820000Y-129450000D03*
D10*
X114100000Y-133650000D03*
D14*
X105325000Y-139600000D03*
X116875000Y-137400000D03*
D10*
X49100000Y-45650000D03*
D11*
X49380000Y-41450000D03*
D12*
X49600000Y-49400000D03*
D13*
X54600000Y-45650000D03*
D12*
X54600000Y-51600000D03*
X59600000Y-49400000D03*
D11*
X59820000Y-41450000D03*
D10*
X60100000Y-45650000D03*
D14*
X51325000Y-51600000D03*
X62875000Y-49400000D03*
D15*
X92000000Y-105000000D03*
X89200000Y-105000000D03*
D10*
X67100000Y-93650000D03*
D11*
X67380000Y-89450000D03*
D12*
X67600000Y-97400000D03*
D13*
X72600000Y-93650000D03*
D12*
X72600000Y-99600000D03*
X77600000Y-97400000D03*
D11*
X77820000Y-89450000D03*
D10*
X78100000Y-93650000D03*
D14*
X69325000Y-99600000D03*
X80875000Y-97400000D03*
D15*
X55840000Y-57950000D03*
X53040000Y-57950000D03*
D10*
X139100000Y-88650000D03*
D11*
X139380000Y-84450000D03*
D12*
X139600000Y-92400000D03*
D13*
X144600000Y-88650000D03*
D12*
X144600000Y-94600000D03*
X149600000Y-92400000D03*
D11*
X149820000Y-84450000D03*
D10*
X150100000Y-88650000D03*
D14*
X141325000Y-94600000D03*
X152875000Y-92400000D03*
D15*
X127970000Y-62840000D03*
X125170000Y-62840000D03*
D10*
X85100000Y-41650000D03*
D11*
X85380000Y-37450000D03*
D12*
X85600000Y-45400000D03*
D13*
X90600000Y-41650000D03*
D12*
X90600000Y-47600000D03*
X95600000Y-45400000D03*
D11*
X95820000Y-37450000D03*
D10*
X96100000Y-41650000D03*
D14*
X87325000Y-47600000D03*
X98875000Y-45400000D03*
D10*
X67100000Y-59650000D03*
D11*
X67380000Y-55450000D03*
D12*
X67600000Y-63400000D03*
D13*
X72600000Y-59650000D03*
D12*
X72600000Y-65600000D03*
X77600000Y-63400000D03*
D11*
X77820000Y-55450000D03*
D10*
X78100000Y-59650000D03*
D14*
X69325000Y-65600000D03*
X80875000Y-63400000D03*
D10*
X49100000Y-130650000D03*
D11*
X49380000Y-126450000D03*
D12*
X49600000Y-134400000D03*
D13*
X54600000Y-130650000D03*
D12*
X54600000Y-136600000D03*
X59600000Y-134400000D03*
D11*
X59820000Y-126450000D03*
D10*
X60100000Y-130650000D03*
D14*
X51325000Y-136600000D03*
X62875000Y-134400000D03*
D15*
X92100000Y-122000000D03*
X89300000Y-122000000D03*
X92300000Y-71000000D03*
X89500000Y-71000000D03*
X74000000Y-89000000D03*
X71200000Y-89000000D03*
X38000000Y-96000000D03*
X35200000Y-96000000D03*
X91800000Y-37000000D03*
X89000000Y-37000000D03*
X146100000Y-66800000D03*
X143300000Y-66800000D03*
X74100000Y-55000000D03*
X71300000Y-55000000D03*
X56000000Y-92000000D03*
X53200000Y-92000000D03*
D10*
X31100000Y-100650000D03*
D11*
X31380000Y-96450000D03*
D12*
X31600000Y-104400000D03*
D13*
X36600000Y-100650000D03*
D12*
X36600000Y-106600000D03*
X41600000Y-104400000D03*
D11*
X41820000Y-96450000D03*
D10*
X42100000Y-100650000D03*
D14*
X33325000Y-106600000D03*
X44875000Y-104400000D03*
D15*
X110000000Y-111900000D03*
X107200000Y-111900000D03*
D10*
X49100000Y-113650000D03*
D11*
X49380000Y-109450000D03*
D12*
X49600000Y-117400000D03*
D13*
X54600000Y-113650000D03*
D12*
X54600000Y-119600000D03*
X59600000Y-117400000D03*
D11*
X59820000Y-109450000D03*
D10*
X60100000Y-113650000D03*
D14*
X51325000Y-119600000D03*
X62875000Y-117400000D03*
D15*
X56000000Y-40800000D03*
X53200000Y-40800000D03*
X110100000Y-78000000D03*
X107300000Y-78000000D03*
D16*
X131280330Y-44300000D03*
X131280330Y-51300000D03*
D17*
X128980330Y-54000000D03*
X133580330Y-52900000D03*
X133580330Y-48900000D03*
X133580330Y-45900000D03*
D15*
X146100000Y-118100000D03*
X143300000Y-118100000D03*
D10*
X121100000Y-84650000D03*
D11*
X121380000Y-80450000D03*
D12*
X121600000Y-88400000D03*
D13*
X126600000Y-84650000D03*
D12*
X126600000Y-90600000D03*
X131600000Y-88400000D03*
D11*
X131820000Y-80450000D03*
D10*
X132100000Y-84650000D03*
D14*
X123325000Y-90600000D03*
X134875000Y-88400000D03*
D10*
X85100000Y-92650000D03*
D11*
X85380000Y-88450000D03*
D12*
X85600000Y-96400000D03*
D13*
X90600000Y-92650000D03*
D12*
X90600000Y-98600000D03*
X95600000Y-96400000D03*
D11*
X95820000Y-88450000D03*
D10*
X96100000Y-92650000D03*
D14*
X87325000Y-98600000D03*
X98875000Y-96400000D03*
D15*
X146100000Y-135100000D03*
X143300000Y-135100000D03*
D18*
X104760000Y-27260000D03*
X104760000Y-29800000D03*
X104760000Y-32340000D03*
X104760000Y-34880000D03*
X104760000Y-37420000D03*
X104760000Y-39960000D03*
X104760000Y-42500000D03*
X104760000Y-45040000D03*
X104760000Y-47580000D03*
X104760000Y-50120000D03*
X104760000Y-52660000D03*
X104760000Y-55200000D03*
X120000000Y-55200000D03*
X120000000Y-52660000D03*
X120000000Y-50120000D03*
X120000000Y-47580000D03*
X120000000Y-45040000D03*
X120000000Y-42500000D03*
X120000000Y-39960000D03*
X120000000Y-37420000D03*
X120000000Y-34880000D03*
X120000000Y-32340000D03*
X120000000Y-29800000D03*
X120000000Y-27260000D03*
D15*
X128000000Y-97000000D03*
X125200000Y-97000000D03*
X74100000Y-105800000D03*
X71300000Y-105800000D03*
X38000000Y-113000000D03*
X35200000Y-113000000D03*
X56000000Y-109000000D03*
X53200000Y-109000000D03*
X92100000Y-87900000D03*
X89300000Y-87900000D03*
X146300000Y-84000000D03*
X143500000Y-84000000D03*
X37930000Y-44910000D03*
X35130000Y-44910000D03*
D10*
X31100000Y-134650000D03*
D11*
X31380000Y-130450000D03*
D12*
X31600000Y-138400000D03*
D13*
X36600000Y-134650000D03*
D12*
X36600000Y-140600000D03*
X41600000Y-138400000D03*
D11*
X41820000Y-130450000D03*
D10*
X42100000Y-134650000D03*
D14*
X33325000Y-140600000D03*
X44875000Y-138400000D03*
D15*
X74000000Y-123000000D03*
X71200000Y-123000000D03*
D10*
X67100000Y-110650000D03*
D11*
X67380000Y-106450000D03*
D12*
X67600000Y-114400000D03*
D13*
X72600000Y-110650000D03*
D12*
X72600000Y-116600000D03*
X77600000Y-114400000D03*
D11*
X77820000Y-106450000D03*
D10*
X78100000Y-110650000D03*
D14*
X69325000Y-116600000D03*
X80875000Y-114400000D03*
D10*
X139100000Y-71650000D03*
D11*
X139380000Y-67450000D03*
D12*
X139600000Y-75400000D03*
D13*
X144600000Y-71650000D03*
D12*
X144600000Y-77600000D03*
X149600000Y-75400000D03*
D11*
X149820000Y-67450000D03*
D10*
X150100000Y-71650000D03*
D14*
X141325000Y-77600000D03*
X152875000Y-75400000D03*
D10*
X85100000Y-109650000D03*
D11*
X85380000Y-105450000D03*
D12*
X85600000Y-113400000D03*
D13*
X90600000Y-109650000D03*
D12*
X90600000Y-115600000D03*
X95600000Y-113400000D03*
D11*
X95820000Y-105450000D03*
D10*
X96100000Y-109650000D03*
D14*
X87325000Y-115600000D03*
X98875000Y-113400000D03*
D10*
X103100000Y-82650000D03*
D11*
X103380000Y-78450000D03*
D12*
X103600000Y-86400000D03*
D13*
X108600000Y-82650000D03*
D12*
X108600000Y-88600000D03*
X113600000Y-86400000D03*
D11*
X113820000Y-78450000D03*
D10*
X114100000Y-82650000D03*
D14*
X105325000Y-88600000D03*
X116875000Y-86400000D03*
D10*
X85100000Y-58650000D03*
D11*
X85380000Y-54450000D03*
D12*
X85600000Y-62400000D03*
D13*
X90600000Y-58650000D03*
D12*
X90600000Y-64600000D03*
X95600000Y-62400000D03*
D11*
X95820000Y-54450000D03*
D10*
X96100000Y-58650000D03*
D14*
X87325000Y-64600000D03*
X98875000Y-62400000D03*
D10*
X49100000Y-79650000D03*
D11*
X49380000Y-75450000D03*
D12*
X49600000Y-83400000D03*
D13*
X54600000Y-79650000D03*
D12*
X54600000Y-85600000D03*
X59600000Y-83400000D03*
D11*
X59820000Y-75450000D03*
D10*
X60100000Y-79650000D03*
D14*
X51325000Y-85600000D03*
X62875000Y-83400000D03*
D10*
X139100000Y-54650000D03*
D11*
X139380000Y-50450000D03*
D12*
X139600000Y-58400000D03*
D13*
X144600000Y-54650000D03*
D12*
X144600000Y-60600000D03*
X149600000Y-58400000D03*
D11*
X149820000Y-50450000D03*
D10*
X150100000Y-54650000D03*
D14*
X141325000Y-60600000D03*
X152875000Y-58400000D03*
D15*
X128000000Y-131000000D03*
X125200000Y-131000000D03*
D10*
X31100000Y-83650000D03*
D11*
X31380000Y-79450000D03*
D12*
X31600000Y-87400000D03*
D13*
X36600000Y-83650000D03*
D12*
X36600000Y-89600000D03*
X41600000Y-87400000D03*
D11*
X41820000Y-79450000D03*
D10*
X42100000Y-83650000D03*
D14*
X33325000Y-89600000D03*
X44875000Y-87400000D03*
D10*
X67100000Y-42650000D03*
D11*
X67380000Y-38450000D03*
D12*
X67600000Y-46400000D03*
D13*
X72600000Y-42650000D03*
D12*
X72600000Y-48600000D03*
X77600000Y-46400000D03*
D11*
X77820000Y-38450000D03*
D10*
X78100000Y-42650000D03*
D14*
X69325000Y-48600000D03*
X80875000Y-46400000D03*
D10*
X139100000Y-122650000D03*
D11*
X139380000Y-118450000D03*
D12*
X139600000Y-126400000D03*
D13*
X144600000Y-122650000D03*
D12*
X144600000Y-128600000D03*
X149600000Y-126400000D03*
D11*
X149820000Y-118450000D03*
D10*
X150100000Y-122650000D03*
D14*
X141325000Y-128600000D03*
X152875000Y-126400000D03*
D15*
X146000000Y-49800000D03*
X143200000Y-49800000D03*
X110100000Y-59000000D03*
X107300000Y-59000000D03*
D10*
X31100000Y-117650000D03*
D11*
X31380000Y-113450000D03*
D12*
X31600000Y-121400000D03*
D13*
X36600000Y-117650000D03*
D12*
X36600000Y-123600000D03*
X41600000Y-121400000D03*
D11*
X41820000Y-113450000D03*
D10*
X42100000Y-117650000D03*
D14*
X33325000Y-123600000D03*
X44875000Y-121400000D03*
D15*
X128000000Y-80000000D03*
X125200000Y-80000000D03*
X146100000Y-101000000D03*
X143300000Y-101000000D03*
X38100000Y-129900000D03*
X35300000Y-129900000D03*
D10*
X31100000Y-66650000D03*
D11*
X31380000Y-62450000D03*
D12*
X31600000Y-70400000D03*
D13*
X36600000Y-66650000D03*
D12*
X36600000Y-72600000D03*
X41600000Y-70400000D03*
D11*
X41820000Y-62450000D03*
D10*
X42100000Y-66650000D03*
D14*
X33325000Y-72600000D03*
X44875000Y-70400000D03*
D15*
X110000000Y-94900000D03*
X107200000Y-94900000D03*
D10*
X67100000Y-76650000D03*
D11*
X67380000Y-72450000D03*
D12*
X67600000Y-80400000D03*
D13*
X72600000Y-76650000D03*
D12*
X72600000Y-82600000D03*
X77600000Y-80400000D03*
D11*
X77820000Y-72450000D03*
D10*
X78100000Y-76650000D03*
D14*
X69325000Y-82600000D03*
X80875000Y-80400000D03*
D10*
X31100000Y-49650000D03*
D11*
X31380000Y-45450000D03*
D12*
X31600000Y-53400000D03*
D13*
X36600000Y-49650000D03*
D12*
X36600000Y-55600000D03*
X41600000Y-53400000D03*
D11*
X41820000Y-45450000D03*
D10*
X42100000Y-49650000D03*
D14*
X33325000Y-55600000D03*
X44875000Y-53400000D03*
D15*
X73800000Y-37800000D03*
X71000000Y-37800000D03*
D10*
X103100000Y-65650000D03*
D11*
X103380000Y-61450000D03*
D12*
X103600000Y-69400000D03*
D13*
X108600000Y-65650000D03*
D12*
X108600000Y-71600000D03*
X113600000Y-69400000D03*
D11*
X113820000Y-61450000D03*
D10*
X114100000Y-65650000D03*
D14*
X105325000Y-71600000D03*
X116875000Y-69400000D03*
D10*
X67100000Y-127650000D03*
D11*
X67380000Y-123450000D03*
D12*
X67600000Y-131400000D03*
D13*
X72600000Y-127650000D03*
D12*
X72600000Y-133600000D03*
X77600000Y-131400000D03*
D11*
X77820000Y-123450000D03*
D10*
X78100000Y-127650000D03*
D14*
X69325000Y-133600000D03*
X80875000Y-131400000D03*
D10*
X121100000Y-135650000D03*
D11*
X121380000Y-131450000D03*
D12*
X121600000Y-139400000D03*
D13*
X126600000Y-135650000D03*
D12*
X126600000Y-141600000D03*
X131600000Y-139400000D03*
D11*
X131820000Y-131450000D03*
D10*
X132100000Y-135650000D03*
D14*
X123325000Y-141600000D03*
X134875000Y-139400000D03*
D15*
X74200000Y-71800000D03*
X71400000Y-71800000D03*
D10*
X121100000Y-67650000D03*
D11*
X121380000Y-63450000D03*
D12*
X121600000Y-71400000D03*
D13*
X126600000Y-67650000D03*
D12*
X126600000Y-73600000D03*
X131600000Y-71400000D03*
D11*
X131820000Y-63450000D03*
D10*
X132100000Y-67650000D03*
D14*
X123325000Y-73600000D03*
X134875000Y-71400000D03*
D15*
X56100000Y-126000000D03*
X53300000Y-126000000D03*
D10*
X85100000Y-75650000D03*
D11*
X85380000Y-71450000D03*
D12*
X85600000Y-79400000D03*
D13*
X90600000Y-75650000D03*
D12*
X90600000Y-81600000D03*
X95600000Y-79400000D03*
D11*
X95820000Y-71450000D03*
D10*
X96100000Y-75650000D03*
D14*
X87325000Y-81600000D03*
X98875000Y-79400000D03*
D15*
X110100000Y-129000000D03*
X107300000Y-129000000D03*
D10*
X103100000Y-99650000D03*
D11*
X103380000Y-95450000D03*
D12*
X103600000Y-103400000D03*
D13*
X108600000Y-99650000D03*
D12*
X108600000Y-105600000D03*
X113600000Y-103400000D03*
D11*
X113820000Y-95450000D03*
D10*
X114100000Y-99650000D03*
D14*
X105325000Y-105600000D03*
X116875000Y-103400000D03*
D15*
X92000000Y-53800000D03*
X89200000Y-53800000D03*
X38000000Y-61900000D03*
X35200000Y-61900000D03*
D10*
X139100000Y-139650000D03*
D11*
X139380000Y-135450000D03*
D12*
X139600000Y-143400000D03*
D13*
X144600000Y-139650000D03*
D12*
X144600000Y-145600000D03*
X149600000Y-143400000D03*
D11*
X149820000Y-135450000D03*
D10*
X150100000Y-139650000D03*
D14*
X141325000Y-145600000D03*
X152875000Y-143400000D03*
D10*
X49100000Y-96650000D03*
D11*
X49380000Y-92450000D03*
D12*
X49600000Y-100400000D03*
D13*
X54600000Y-96650000D03*
D12*
X54600000Y-102600000D03*
X59600000Y-100400000D03*
D11*
X59820000Y-92450000D03*
D10*
X60100000Y-96650000D03*
D14*
X51325000Y-102600000D03*
X62875000Y-100400000D03*
D15*
X128000000Y-114000000D03*
X125200000Y-114000000D03*
D10*
X139100000Y-105650000D03*
D11*
X139380000Y-101450000D03*
D12*
X139600000Y-109400000D03*
D13*
X144600000Y-105650000D03*
D12*
X144600000Y-111600000D03*
X149600000Y-109400000D03*
D11*
X149820000Y-101450000D03*
D10*
X150100000Y-105650000D03*
D14*
X141325000Y-111600000D03*
X152875000Y-109400000D03*
D16*
X126680330Y-51300000D03*
X126680330Y-44300000D03*
D17*
X128980330Y-54000000D03*
X124380330Y-52900000D03*
X124380330Y-48900000D03*
X124380330Y-45900000D03*
D15*
X38100000Y-79000000D03*
X35300000Y-79000000D03*
X56100000Y-74600000D03*
X53300000Y-74600000D03*
M02*
