M48
; DRILL file {KiCad 8.0.6} date 2024-11-06T21:34:13+0100
; FORMAT={-:-/ absolute / metric / decimal}
; #@! TF.CreationDate,2024-11-06T21:34:13+01:00
; #@! TF.GenerationSoftware,Kicad,Pcbnew,8.0.6
; #@! TF.FileFunction,Plated,1,2,PTH
FMAT,2
METRIC
; #@! TA.AperFunction,Plated,PTH,ViaDrill
T1C0.300
; #@! TA.AperFunction,Plated,PTH,ComponentDrill
T2C0.813
; #@! TA.AperFunction,Plated,PTH,ComponentDrill
T3C0.900
%
G90
G05
T1
X32.6Y-41.6
X34.88Y-46.19
X34.88Y-97.51
X34.96Y-114.41
X35.08Y-63.95
X35.08Y-131.52
X35.1Y-80.19
X36.2Y-52.6
X36.2Y-120.8
X36.3Y-104.0
X36.3Y-137.6
X36.37Y-70.44
X36.7Y-86.8
X38.3Y-60.7
X38.4Y-94.7
X38.4Y-128.6
X38.5Y-111.8
X38.7Y-77.6
X40.3Y-42.8
X42.33Y-60.9
X42.94Y-94.62
X43.09Y-43.98
X47.3Y-41.7
X52.83Y-127.45
X53.25Y-110.39
X53.33Y-76.14
X53.44Y-59.4
X53.5Y-42.35
X54.2Y-48.4
X54.3Y-116.9
X54.3Y-133.6
X54.4Y-82.7
X54.5Y-65.7
X54.5Y-100.0
X56.0Y-90.7
X56.3Y-107.7
X56.4Y-124.7
X56.5Y-56.6
X56.8Y-73.6
X57.7Y-40.605
X60.9Y-107.53
X60.93Y-42.45
X61.16Y-59.44
X63.323Y-39.928
X64.76Y-41.84
X66.36Y-57.3
X71.05Y-73.05
X71.06Y-39.33
X71.36Y-56.42
X71.38Y-107.28
X71.39Y-124.66
X72.0Y-113.7
X72.1Y-79.7
X72.2Y-96.9
X72.4Y-45.8
X72.4Y-62.7
X72.4Y-130.8
X74.2Y-87.6
X74.2Y-104.6
X74.2Y-121.7
X74.5Y-70.5
X74.6Y-53.6
X75.3Y-37.6
X77.6Y-121.85
X78.46Y-87.51
X80.38Y-106.07
X80.72Y-123.93
X80.75Y-72.61
X80.81Y-134.35
X80.83Y-40.23
X81.15Y-55.53
X86.6Y-89.73
X87.03Y-105.24
X87.03Y-121.74
X87.08Y-71.5
X88.24Y-109.29
X88.39Y-125.07
X88.85Y-106.61
X88.86Y-73.24
X88.89Y-38.41
X89.1Y-55.18
X89.24Y-123.54
X89.39Y-89.38
X89.56Y-72.54
X90.12Y-90.27
X90.2Y-113.1
X90.4Y-44.8
X90.4Y-129.9
X90.5Y-78.8
X90.7Y-61.8
X90.7Y-95.8
X92.3Y-86.6
X92.5Y-52.4
X92.7Y-103.6
X92.7Y-120.6
X93.0Y-37.1
X93.0Y-69.5
X93.9Y-75.14
X94.65Y-91.99
X95.8Y-104.06
X96.21Y-121.38
X96.84Y-86.68
X97.78Y-35.55
X98.56Y-41.96
X98.6Y-35.4
X98.62Y-57.42
X98.83Y-51.96
X98.95Y-133.14
X99.5Y-35.4
X100.12Y-28.56
X100.14Y-33.37
X100.524Y-60.024
X102.21Y-79.29
X106.9Y-113.59
X107.12Y-96.34
X107.23Y-79.3
X108.3Y-102.8
X108.3Y-119.9
X108.4Y-68.9
X108.5Y-86.1
X108.6Y-136.8
X109.75Y-39.85
X110.0Y-93.6
X110.3Y-110.6
X110.4Y-127.7
X110.41Y-35.88
X110.6Y-76.7
X112.87Y-27.43
X113.45Y-55.98
X114.12Y-53.13
X114.46Y-31.41
X114.67Y-25.29
X115.4Y-38.1
X115.54Y-43.96
X115.7Y-49.6
X115.8Y-47.0
X115.8Y-52.1
X116.43Y-114.07
X116.52Y-125.66
X116.52Y-131.32
X116.84Y-61.43
X122.33Y-56.83
X122.96Y-61.93
X124.61Y-26.22
X124.94Y-64.28
X125.05Y-115.66
X125.13Y-81.56
X125.22Y-133.05
X125.42Y-98.39
X125.72Y-29.8
X126.1Y-122.0
X126.2Y-87.9
X126.3Y-70.8
X126.4Y-105.0
X126.6Y-138.8
X127.74Y-50.12
X128.48Y-56.67
X128.5Y-95.7
X128.6Y-78.6
X128.6Y-112.7
X128.6Y-129.6
X129.76Y-61.59
X130.22Y-49.98
X132.02Y-42.23
X136.51Y-44.94
X143.11Y-102.5
X143.23Y-136.9
X143.24Y-68.17
X143.46Y-119.77
X143.57Y-51.41
X143.65Y-85.36
X144.1Y-108.7
X144.2Y-57.9
X144.2Y-74.9
X144.2Y-125.8
X144.3Y-91.7
X144.8Y-142.5
X146.5Y-99.5
X146.5Y-116.7
X146.6Y-133.6
X146.7Y-65.2
X146.7Y-82.7
X149.69Y-65.4
X151.83Y-45.35
X152.89Y-63.92
X153.64Y-25.75
T2
X104.76Y-27.26
X104.76Y-29.8
X104.76Y-32.34
X104.76Y-34.88
X104.76Y-37.42
X104.76Y-39.96
X104.76Y-42.5
X104.76Y-45.04
X104.76Y-47.58
X104.76Y-50.12
X104.76Y-52.66
X104.76Y-55.2
X106.086Y-25.99
X106.086Y-28.53
X106.086Y-31.07
X106.086Y-33.61
X106.086Y-36.15
X106.086Y-38.69
X106.086Y-41.23
X106.086Y-43.77
X106.086Y-46.31
X106.086Y-48.85
X106.086Y-51.39
X106.086Y-53.93
X120.0Y-27.26
X120.0Y-29.8
X120.0Y-32.34
X120.0Y-34.88
X120.0Y-37.42
X120.0Y-39.96
X120.0Y-42.5
X120.0Y-45.04
X120.0Y-47.58
X120.0Y-50.12
X120.0Y-52.66
X120.0Y-55.2
X121.306Y-25.99
X121.306Y-28.53
X121.306Y-31.07
X121.306Y-33.61
X121.306Y-36.15
X121.306Y-38.69
X121.306Y-41.23
X121.306Y-43.77
X121.306Y-46.31
X121.306Y-48.85
X121.306Y-51.39
X121.306Y-53.93
T3
X124.38Y-46.1G85X124.38Y-45.7
G05
X124.38Y-49.1G85X124.38Y-48.7
G05
X124.38Y-53.1G85X124.38Y-52.7
G05
X128.98Y-54.2G85X128.98Y-53.8
G05
X128.98Y-53.8G85X128.98Y-54.2
G05
X133.58Y-45.7G85X133.58Y-46.1
G05
X133.58Y-48.7G85X133.58Y-49.1
G05
X133.58Y-52.7G85X133.58Y-53.1
G05
M30
