G04 #@! TF.GenerationSoftware,KiCad,Pcbnew,8.0.3*
G04 #@! TF.CreationDate,2024-11-05T20:03:27+01:00*
G04 #@! TF.ProjectId,vitter-kb,76697474-6572-42d6-9b62-2e6b69636164,rev?*
G04 #@! TF.SameCoordinates,Original*
G04 #@! TF.FileFunction,Profile,NP*
%FSLAX46Y46*%
G04 Gerber Fmt 4.6, Leading zero omitted, Abs format (unit mm)*
G04 Created by KiCad (PCBNEW 8.0.3) date 2024-11-05 20:03:27*
%MOMM*%
%LPD*%
G01*
G04 APERTURE LIST*
G04 #@! TA.AperFunction,Profile*
%ADD10C,0.050000*%
G04 #@! TD*
G04 APERTURE END LIST*
D10*
X100400000Y-32400000D02*
X81900000Y-32400000D01*
X26400000Y-38200000D02*
X26400000Y-144000000D01*
X63900000Y-33400000D02*
X60000000Y-36000000D01*
X103800000Y-29400000D02*
X142000000Y-29400000D01*
X154900000Y-45000000D02*
X142000000Y-45000000D01*
X81900000Y-32400000D02*
X80100000Y-33400000D01*
X103800000Y-29400000D02*
X100400000Y-32400000D01*
X67400000Y-136900000D02*
X81600000Y-136900000D01*
X81600000Y-136900000D02*
X84500000Y-136000000D01*
X154900000Y-147000000D02*
X154900000Y-146100000D01*
X134900000Y-149000000D02*
X154900000Y-149000000D01*
X46100000Y-36000000D02*
X41300000Y-38300000D01*
X60000000Y-36000000D02*
X46100000Y-36000000D01*
X84500000Y-136000000D02*
X97700000Y-136000000D01*
X154900000Y-149000000D02*
X154900000Y-147000000D01*
X47800000Y-139900000D02*
X62800000Y-139900000D01*
X45800000Y-144000000D02*
X47800000Y-139900000D01*
X99200000Y-143000000D02*
X116900000Y-143000000D01*
X62800000Y-139900000D02*
X67400000Y-136900000D01*
X41300000Y-38300000D02*
X26400000Y-38200000D01*
X116900000Y-143000000D02*
X117300000Y-145100000D01*
X117300000Y-145100000D02*
X134000000Y-145100000D01*
X142000000Y-29400000D02*
X142000000Y-45000000D01*
X26400000Y-144000000D02*
X45800000Y-144000000D01*
X80100000Y-33400000D02*
X63900000Y-33400000D01*
X134000000Y-145100000D02*
X134900000Y-149000000D01*
X97700000Y-136000000D02*
X99200000Y-143000000D01*
X154900000Y-146100000D02*
X154900000Y-45000000D01*
M02*
