G04 #@! TF.GenerationSoftware,KiCad,Pcbnew,8.0.3*
G04 #@! TF.CreationDate,2024-11-05T20:03:27+01:00*
G04 #@! TF.ProjectId,vitter-kb,76697474-6572-42d6-9b62-2e6b69636164,rev?*
G04 #@! TF.SameCoordinates,Original*
G04 #@! TF.FileFunction,Copper,L2,Bot*
G04 #@! TF.FilePolarity,Positive*
%FSLAX46Y46*%
G04 Gerber Fmt 4.6, Leading zero omitted, Abs format (unit mm)*
G04 Created by KiCad (PCBNEW 8.0.3) date 2024-11-05 20:03:27*
%MOMM*%
%LPD*%
G01*
G04 APERTURE LIST*
G04 #@! TA.AperFunction,SMDPad,CuDef*
%ADD10R,2.600000X2.600000*%
G04 #@! TD*
G04 #@! TA.AperFunction,SMDPad,CuDef*
%ADD11R,1.600000X1.200000*%
G04 #@! TD*
G04 #@! TA.AperFunction,ComponentPad*
%ADD12O,2.000000X1.600000*%
G04 #@! TD*
G04 #@! TA.AperFunction,ComponentPad*
%ADD13C,1.524000*%
G04 #@! TD*
G04 #@! TA.AperFunction,ViaPad*
%ADD14C,0.600000*%
G04 #@! TD*
G04 #@! TA.AperFunction,Conductor*
%ADD15C,0.200000*%
G04 #@! TD*
G04 APERTURE END LIST*
D10*
X129875000Y-107600000D03*
X118325000Y-105400000D03*
X57875000Y-68600000D03*
X46325000Y-66400000D03*
X93875000Y-132600000D03*
X82325000Y-130400000D03*
X129875000Y-124600000D03*
X118325000Y-122400000D03*
X111875000Y-122600000D03*
X100325000Y-120400000D03*
X111875000Y-139600000D03*
X100325000Y-137400000D03*
X57875000Y-51600000D03*
X46325000Y-49400000D03*
D11*
X92000000Y-105000000D03*
X89200000Y-105000000D03*
D10*
X75875000Y-99600000D03*
X64325000Y-97400000D03*
D11*
X55900000Y-58000000D03*
X53100000Y-58000000D03*
D10*
X147875000Y-94600000D03*
X136325000Y-92400000D03*
D11*
X128100000Y-61000000D03*
X125300000Y-61000000D03*
D10*
X93875000Y-47600000D03*
X82325000Y-45400000D03*
X75875000Y-65600000D03*
X64325000Y-63400000D03*
X57875000Y-136600000D03*
X46325000Y-134400000D03*
D11*
X92100000Y-122000000D03*
X89300000Y-122000000D03*
X92300000Y-71000000D03*
X89500000Y-71000000D03*
X74000000Y-89000000D03*
X71200000Y-89000000D03*
X38000000Y-96000000D03*
X35200000Y-96000000D03*
X91800000Y-37000000D03*
X89000000Y-37000000D03*
X146100000Y-66800000D03*
X143300000Y-66800000D03*
X74100000Y-55000000D03*
X71300000Y-55000000D03*
X56000000Y-92000000D03*
X53200000Y-92000000D03*
D10*
X39875000Y-106600000D03*
X28325000Y-104400000D03*
D11*
X110000000Y-111900000D03*
X107200000Y-111900000D03*
D10*
X57875000Y-119600000D03*
X46325000Y-117400000D03*
D11*
X56000000Y-40800000D03*
X53200000Y-40800000D03*
X110100000Y-78000000D03*
X107300000Y-78000000D03*
D12*
X139600000Y-55300000D03*
X140700000Y-59900000D03*
X144700000Y-59900000D03*
X147700000Y-59900000D03*
D11*
X146100000Y-118100000D03*
X143300000Y-118100000D03*
D10*
X129875000Y-90600000D03*
X118325000Y-88400000D03*
X93875000Y-98600000D03*
X82325000Y-96400000D03*
D11*
X146100000Y-135100000D03*
X143300000Y-135100000D03*
X128000000Y-97000000D03*
X125200000Y-97000000D03*
X74100000Y-105800000D03*
X71300000Y-105800000D03*
X38000000Y-113000000D03*
X35200000Y-113000000D03*
X56000000Y-109000000D03*
X53200000Y-109000000D03*
X92100000Y-87900000D03*
X89300000Y-87900000D03*
X146300000Y-84000000D03*
X143500000Y-84000000D03*
X38100000Y-42800000D03*
X35300000Y-42800000D03*
D10*
X39875000Y-140600000D03*
X28325000Y-138400000D03*
D11*
X74000000Y-123000000D03*
X71200000Y-123000000D03*
D10*
X75875000Y-116600000D03*
X64325000Y-114400000D03*
X147875000Y-77600000D03*
X136325000Y-75400000D03*
X93875000Y-115600000D03*
X82325000Y-113400000D03*
X111875000Y-88600000D03*
X100325000Y-86400000D03*
X93875000Y-64600000D03*
X82325000Y-62400000D03*
X57875000Y-85600000D03*
X46325000Y-83400000D03*
D11*
X128000000Y-131000000D03*
X125200000Y-131000000D03*
D10*
X39875000Y-89600000D03*
X28325000Y-87400000D03*
X75875000Y-48600000D03*
X64325000Y-46400000D03*
X147875000Y-128600000D03*
X136325000Y-126400000D03*
D11*
X110100000Y-59000000D03*
X107300000Y-59000000D03*
D10*
X39875000Y-123600000D03*
X28325000Y-121400000D03*
D11*
X128000000Y-80000000D03*
X125200000Y-80000000D03*
X146100000Y-101000000D03*
X143300000Y-101000000D03*
X38100000Y-129900000D03*
X35300000Y-129900000D03*
D10*
X39875000Y-72600000D03*
X28325000Y-70400000D03*
D11*
X110000000Y-94900000D03*
X107200000Y-94900000D03*
D10*
X75875000Y-82600000D03*
X64325000Y-80400000D03*
X39875000Y-55600000D03*
X28325000Y-53400000D03*
D11*
X73800000Y-37800000D03*
X71000000Y-37800000D03*
D10*
X111875000Y-71600000D03*
X100325000Y-69400000D03*
X75875000Y-133600000D03*
X64325000Y-131400000D03*
X129875000Y-141600000D03*
X118325000Y-139400000D03*
D11*
X74200000Y-71800000D03*
X71400000Y-71800000D03*
D10*
X129875000Y-73600000D03*
X118325000Y-71400000D03*
D11*
X56100000Y-126000000D03*
X53300000Y-126000000D03*
D10*
X93875000Y-81600000D03*
X82325000Y-79400000D03*
D11*
X110100000Y-129000000D03*
X107300000Y-129000000D03*
D10*
X111875000Y-105600000D03*
X100325000Y-103400000D03*
D11*
X92000000Y-53800000D03*
X89200000Y-53800000D03*
X38000000Y-61900000D03*
X35200000Y-61900000D03*
D10*
X147875000Y-145600000D03*
X136325000Y-143400000D03*
X57875000Y-102600000D03*
X46325000Y-100400000D03*
D11*
X128000000Y-114000000D03*
X125200000Y-114000000D03*
D10*
X147875000Y-111600000D03*
X136325000Y-109400000D03*
D12*
X139600000Y-55300000D03*
X140700000Y-50700000D03*
X144700000Y-50700000D03*
X147700000Y-50700000D03*
D13*
X134784500Y-48777500D03*
X136054500Y-32231100D03*
X132244500Y-48777500D03*
X133514500Y-32231100D03*
X129704500Y-48777500D03*
X130974500Y-32231100D03*
X127164500Y-48777500D03*
X128434500Y-32231100D03*
X124624500Y-48777500D03*
X125894500Y-32231100D03*
X122084500Y-48777500D03*
X123354500Y-32231100D03*
X119544500Y-48777500D03*
X120814500Y-32231100D03*
X117004500Y-48777500D03*
X118274500Y-32231100D03*
X114464500Y-48777500D03*
X115734500Y-32231100D03*
X111924500Y-48777500D03*
X113194500Y-32231100D03*
X109384500Y-48777500D03*
X110654500Y-32231100D03*
X106844500Y-48777500D03*
X108114500Y-32231100D03*
X108114500Y-47451100D03*
X106844500Y-33537500D03*
X110654500Y-47451100D03*
X109384500Y-33537500D03*
X113194500Y-47451100D03*
X111924500Y-33537500D03*
X115734500Y-47451100D03*
X114464500Y-33537500D03*
X118274500Y-47451100D03*
X117004500Y-33537500D03*
X120814500Y-47451100D03*
X119544500Y-33537500D03*
X123354500Y-47451100D03*
X122084500Y-33537500D03*
X125894500Y-47451100D03*
X124624500Y-33537500D03*
X128434500Y-47451100D03*
X127164500Y-33537500D03*
X130974500Y-47451100D03*
X129704500Y-33537500D03*
X133514500Y-47451100D03*
X132244500Y-33537500D03*
X136054500Y-47451100D03*
X134784500Y-33537500D03*
D11*
X38100000Y-79000000D03*
X35300000Y-79000000D03*
X56100000Y-74600000D03*
X53300000Y-74600000D03*
D14*
X36300000Y-104000000D03*
X36200000Y-52600000D03*
X122500000Y-38400000D03*
X36200000Y-120800000D03*
X36300000Y-69800000D03*
X36700000Y-86800000D03*
X32600000Y-41600000D03*
X36300000Y-137600000D03*
X54500000Y-100000000D03*
X54300000Y-116900000D03*
X118944500Y-38500000D03*
X47300000Y-41700000D03*
X54500000Y-65700000D03*
X54200000Y-48400000D03*
X54300000Y-133600000D03*
X54400000Y-82700000D03*
X72000000Y-113700000D03*
X72100000Y-79700000D03*
X72200000Y-96900000D03*
X72400000Y-62700000D03*
X72400000Y-130800000D03*
X63323385Y-39928085D03*
X116400000Y-38400000D03*
X72400000Y-45800000D03*
X90400000Y-44800000D03*
X113900000Y-38200000D03*
X90700000Y-95800000D03*
X90700000Y-61800000D03*
X90500000Y-78800000D03*
X90200000Y-113100000D03*
X90400000Y-129900000D03*
X108500000Y-86100000D03*
X108600000Y-136800000D03*
X111300000Y-38300000D03*
X104000000Y-49700000D03*
X108300000Y-102800000D03*
X108400000Y-68900000D03*
X108300000Y-119900000D03*
X126100000Y-122000000D03*
X104900000Y-49700000D03*
X126400000Y-105000000D03*
X108784500Y-38400000D03*
X126300000Y-70800000D03*
X126600000Y-138800000D03*
X126200000Y-87900000D03*
X144200000Y-125800000D03*
X144300000Y-91700000D03*
X144200000Y-74900000D03*
X144800000Y-142500000D03*
X144100000Y-108700000D03*
X128500000Y-95700000D03*
X92300000Y-86600000D03*
X110000000Y-93600000D03*
X56000000Y-90700000D03*
X146500000Y-99500000D03*
X38400000Y-94700000D03*
X101575734Y-49675737D03*
X74200000Y-87600000D03*
X38400000Y-128600000D03*
X92700000Y-120600000D03*
X56400000Y-124700000D03*
X128600000Y-129600000D03*
X146600000Y-133600000D03*
X74200000Y-121700000D03*
X103200000Y-49700000D03*
X110400000Y-127700000D03*
X146500000Y-116700000D03*
X128600000Y-112700000D03*
X38500000Y-111800000D03*
X92700000Y-103600000D03*
X102400000Y-49700000D03*
X74200000Y-104600000D03*
X56300000Y-107700000D03*
X110300000Y-110600000D03*
X38700000Y-77600000D03*
X74500000Y-70500000D03*
X146700000Y-82700000D03*
X128600000Y-78600000D03*
X110600000Y-76700000D03*
X56800000Y-73600000D03*
X93000000Y-69500000D03*
X100725734Y-49625737D03*
X93000000Y-37100000D03*
X102800000Y-36600000D03*
X75300000Y-37600000D03*
X57700000Y-40604700D03*
X40300000Y-42800000D03*
X38300000Y-60700000D03*
X110500000Y-57500000D03*
X128500000Y-59300000D03*
X146700000Y-65200000D03*
X56500000Y-56600000D03*
X74600000Y-53600000D03*
X92500000Y-52400000D03*
D15*
X28325000Y-138400000D02*
X28325000Y-119400000D01*
X28325000Y-47875000D02*
X28325000Y-51400000D01*
X28325000Y-102400000D02*
X30175000Y-100550000D01*
X31400000Y-85100000D02*
X35000000Y-85100000D01*
X34250900Y-118850900D02*
X36200000Y-120800000D01*
X28325000Y-87400000D02*
X30625000Y-85100000D01*
X35050000Y-68550000D02*
X36300000Y-69800000D01*
X122292500Y-47011205D02*
X122954500Y-46349205D01*
X28325000Y-138400000D02*
X30874100Y-135850900D01*
X30175000Y-100550000D02*
X34850000Y-100550000D01*
X28325000Y-53400000D02*
X30425000Y-51300000D01*
X30525000Y-68200000D02*
X34800000Y-68200000D01*
X30874100Y-135850900D02*
X34550900Y-135850900D01*
X34550900Y-135850900D02*
X36300000Y-137600000D01*
X32600000Y-41600000D02*
X32600000Y-43600000D01*
X30425000Y-51300000D02*
X34900000Y-51300000D01*
X122084500Y-48777500D02*
X122631753Y-48230247D01*
X28325000Y-85400000D02*
X28325000Y-85325000D01*
X28325000Y-70400000D02*
X30525000Y-68200000D01*
X28325000Y-51400000D02*
X28325000Y-68400000D01*
X28325000Y-121400000D02*
X30874100Y-118850900D01*
X122631753Y-48230247D02*
X122292500Y-47890995D01*
X28325000Y-100600000D02*
X28325000Y-119400000D01*
X35000000Y-85100000D02*
X36700000Y-86800000D01*
X28325000Y-100600000D02*
X28325000Y-102400000D01*
X35050000Y-68450000D02*
X35050000Y-68550000D01*
X28325000Y-68400000D02*
X28325000Y-85400000D01*
X122954500Y-38854500D02*
X122500000Y-38400000D01*
X32600000Y-43600000D02*
X28325000Y-47875000D01*
X30625000Y-85100000D02*
X31400000Y-85100000D01*
X28325000Y-85400000D02*
X28325000Y-100600000D01*
X34850000Y-102550000D02*
X36300000Y-104000000D01*
X122954500Y-46349205D02*
X122954500Y-38854500D01*
X30874100Y-118850900D02*
X34250900Y-118850900D01*
X122292500Y-47890995D02*
X122292500Y-47011205D01*
X34900000Y-51300000D02*
X36200000Y-52600000D01*
X34800000Y-68200000D02*
X35050000Y-68450000D01*
X39875000Y-72600000D02*
X38664500Y-71389500D01*
X38664500Y-65364500D02*
X35200000Y-61900000D01*
X38664500Y-71389500D02*
X38664500Y-65364500D01*
X52650900Y-46850900D02*
X54200000Y-48400000D01*
X46325000Y-83400000D02*
X46325000Y-83175000D01*
X46325000Y-66400000D02*
X46325000Y-83400000D01*
X46000000Y-49000000D02*
X48149100Y-46850900D01*
X46325000Y-66400000D02*
X48175000Y-64550000D01*
X119544500Y-46746786D02*
X119544500Y-48777500D01*
X118944500Y-38500000D02*
X118944500Y-46146786D01*
X46325000Y-100400000D02*
X46325000Y-117400000D01*
X53250000Y-81550000D02*
X54400000Y-82700000D01*
X46325000Y-117400000D02*
X48175000Y-115550000D01*
X48175000Y-98550000D02*
X53050000Y-98550000D01*
X47950000Y-81550000D02*
X53250000Y-81550000D01*
X48175000Y-115550000D02*
X52950000Y-115550000D01*
X46325000Y-83175000D02*
X46500000Y-83000000D01*
X46325000Y-117400000D02*
X46325000Y-134400000D01*
X53250000Y-132550000D02*
X54300000Y-133600000D01*
X53050000Y-98550000D02*
X54500000Y-100000000D01*
X47300000Y-41700000D02*
X46325000Y-42675000D01*
X46325000Y-100400000D02*
X48175000Y-98550000D01*
X48149100Y-46850900D02*
X52650900Y-46850900D01*
X46325000Y-83400000D02*
X46325000Y-100400000D01*
X46325000Y-49400000D02*
X46325000Y-49325000D01*
X53350000Y-64550000D02*
X54500000Y-65700000D01*
X46325000Y-42675000D02*
X46325000Y-49400000D01*
X46500000Y-83000000D02*
X47950000Y-81550000D01*
X52950000Y-115550000D02*
X54300000Y-116900000D01*
X48175000Y-64550000D02*
X53350000Y-64550000D01*
X46325000Y-134400000D02*
X48175000Y-132550000D01*
X48175000Y-132550000D02*
X53250000Y-132550000D01*
X46325000Y-49400000D02*
X46325000Y-66400000D01*
X46325000Y-49325000D02*
X46000000Y-49000000D01*
X118944500Y-46146786D02*
X119544500Y-46746786D01*
X64325000Y-131400000D02*
X64325000Y-114400000D01*
X70900000Y-61200000D02*
X72400000Y-62700000D01*
X64325000Y-97400000D02*
X66175000Y-95550000D01*
X70150900Y-111850900D02*
X72000000Y-113700000D01*
X66525000Y-61200000D02*
X70900000Y-61200000D01*
X64325000Y-45625000D02*
X64325000Y-46400000D01*
X64325000Y-131400000D02*
X66175000Y-129550000D01*
X117004500Y-46746786D02*
X116600000Y-46342286D01*
X66175000Y-95550000D02*
X70850000Y-95550000D01*
X63300000Y-39951470D02*
X63300000Y-44600000D01*
X64325000Y-114400000D02*
X64325000Y-97400000D01*
X63300000Y-44600000D02*
X64325000Y-45625000D01*
X71150000Y-44550000D02*
X72400000Y-45800000D01*
X70950000Y-78550000D02*
X72100000Y-79700000D01*
X66175000Y-129550000D02*
X71150000Y-129550000D01*
X64325000Y-63400000D02*
X64325000Y-46400000D01*
X66175000Y-78550000D02*
X70950000Y-78550000D01*
X116600000Y-38600000D02*
X116400000Y-38400000D01*
X66175000Y-44550000D02*
X71150000Y-44550000D01*
X64325000Y-80400000D02*
X64325000Y-63400000D01*
X64325000Y-63400000D02*
X66525000Y-61200000D01*
X117004500Y-48777500D02*
X117004500Y-46746786D01*
X116600000Y-46342286D02*
X116600000Y-38600000D01*
X70850000Y-95550000D02*
X72200000Y-96900000D01*
X64325000Y-80400000D02*
X66175000Y-78550000D01*
X66874100Y-111850900D02*
X70150900Y-111850900D01*
X64325000Y-114400000D02*
X66874100Y-111850900D01*
X64325000Y-97400000D02*
X64325000Y-80400000D01*
X64325000Y-46400000D02*
X66175000Y-44550000D01*
X71150000Y-129550000D02*
X72400000Y-130800000D01*
X63323385Y-39928085D02*
X63300000Y-39951470D01*
X74664500Y-58364500D02*
X71300000Y-55000000D01*
X74664500Y-64389500D02*
X74664500Y-58364500D01*
X75875000Y-65600000D02*
X74664500Y-64389500D01*
X82400000Y-94900000D02*
X82325000Y-94975000D01*
X82325000Y-130400000D02*
X84175000Y-128550000D01*
X114100000Y-46382286D02*
X114100000Y-38400000D01*
X82325000Y-45400000D02*
X82325000Y-62400000D01*
X89450000Y-94550000D02*
X90700000Y-95800000D01*
X89250000Y-77550000D02*
X90500000Y-78800000D01*
X114100000Y-38400000D02*
X113900000Y-38200000D01*
X84175000Y-94550000D02*
X89450000Y-94550000D01*
X89450000Y-60550000D02*
X90700000Y-61800000D01*
X82325000Y-94825000D02*
X82400000Y-94900000D01*
X82325000Y-45400000D02*
X84175000Y-43550000D01*
X82325000Y-62400000D02*
X82325000Y-79400000D01*
X82325000Y-113400000D02*
X84175000Y-111550000D01*
X114464500Y-48777500D02*
X114464500Y-46746786D01*
X88650000Y-111550000D02*
X90200000Y-113100000D01*
X82325000Y-79400000D02*
X82325000Y-94825000D01*
X89150000Y-43550000D02*
X90400000Y-44800000D01*
X82325000Y-79400000D02*
X84175000Y-77550000D01*
X82325000Y-96400000D02*
X84175000Y-94550000D01*
X114464500Y-46746786D02*
X114100000Y-46382286D01*
X82325000Y-96400000D02*
X82325000Y-113400000D01*
X84175000Y-111550000D02*
X88650000Y-111550000D01*
X84175000Y-60550000D02*
X89450000Y-60550000D01*
X89050000Y-128550000D02*
X90400000Y-129900000D01*
X84175000Y-128550000D02*
X89050000Y-128550000D01*
X84175000Y-43550000D02*
X89150000Y-43550000D01*
X84175000Y-77550000D02*
X89250000Y-77550000D01*
X82325000Y-94975000D02*
X82325000Y-96400000D01*
X82325000Y-62400000D02*
X84175000Y-60550000D01*
X82325000Y-113400000D02*
X82325000Y-130400000D01*
X93750000Y-58350000D02*
X89200000Y-53800000D01*
X93875000Y-64600000D02*
X93750000Y-64475000D01*
X93750000Y-64475000D02*
X93750000Y-58350000D01*
X100325000Y-67600000D02*
X102125000Y-67600000D01*
X102625000Y-118100000D02*
X100325000Y-120400000D01*
X106600000Y-84200000D02*
X101000000Y-84200000D01*
X106600000Y-67100000D02*
X108400000Y-68900000D01*
X101000000Y-84200000D02*
X100800000Y-84400000D01*
X101125000Y-135100000D02*
X106900000Y-135100000D01*
X106900000Y-135100000D02*
X108600000Y-136800000D01*
X100325000Y-67600000D02*
X100325000Y-84400000D01*
X99900000Y-54200000D02*
X99900000Y-60365686D01*
X104000000Y-49700000D02*
X104000000Y-50100000D01*
X108500000Y-86100000D02*
X106600000Y-84200000D01*
X106500000Y-118100000D02*
X102625000Y-118100000D01*
X106700000Y-101200000D02*
X102525000Y-101200000D01*
X102625000Y-67100000D02*
X106600000Y-67100000D01*
X100325000Y-135900000D02*
X101125000Y-135100000D01*
X102525000Y-101200000D02*
X100325000Y-103400000D01*
X108300000Y-119900000D02*
X106500000Y-118100000D01*
X104000000Y-50100000D02*
X99900000Y-54200000D01*
X100325000Y-137400000D02*
X100325000Y-135900000D01*
X111300000Y-46122286D02*
X111300000Y-38300000D01*
X100800000Y-84400000D02*
X100325000Y-84400000D01*
X111924500Y-46746786D02*
X111300000Y-46122286D01*
X99900000Y-60365686D02*
X99100000Y-61165686D01*
X111924500Y-48777500D02*
X111924500Y-46746786D01*
X99100000Y-61165686D02*
X99100000Y-66175000D01*
X108300000Y-102800000D02*
X106700000Y-101200000D01*
X100325000Y-67400000D02*
X100325000Y-67600000D01*
X102125000Y-67600000D02*
X102625000Y-67100000D01*
X99100000Y-66175000D02*
X100325000Y-67400000D01*
X100325000Y-137400000D02*
X100325000Y-84400000D01*
X110664500Y-62364500D02*
X107300000Y-59000000D01*
X110664500Y-70389500D02*
X110664500Y-62364500D01*
X111875000Y-71600000D02*
X110664500Y-70389500D01*
X128664500Y-72389500D02*
X129875000Y-73600000D01*
X128664500Y-64364500D02*
X128664500Y-72389500D01*
X125300000Y-61000000D02*
X128664500Y-64364500D01*
X118325000Y-139400000D02*
X120175000Y-137550000D01*
X118325000Y-71400000D02*
X120175000Y-69550000D01*
X118325000Y-122400000D02*
X118325000Y-139400000D01*
X120175000Y-86550000D02*
X124850000Y-86550000D01*
X104900000Y-49700000D02*
X104900000Y-52900000D01*
X108984500Y-46346786D02*
X108984500Y-38600000D01*
X109384500Y-48777500D02*
X109384500Y-46746786D01*
X118325000Y-62025000D02*
X118325000Y-62800000D01*
X108984500Y-38600000D02*
X108784500Y-38400000D01*
X107800000Y-55800000D02*
X112100000Y-55800000D01*
X118325000Y-71400000D02*
X118325000Y-62800000D01*
X125350000Y-137550000D02*
X126600000Y-138800000D01*
X124850000Y-86550000D02*
X126200000Y-87900000D01*
X104900000Y-52900000D02*
X107800000Y-55800000D01*
X124950000Y-103550000D02*
X126400000Y-105000000D01*
X120874100Y-119850900D02*
X123950900Y-119850900D01*
X120175000Y-69550000D02*
X125050000Y-69550000D01*
X120175000Y-137550000D02*
X125350000Y-137550000D01*
X109384500Y-46746786D02*
X108984500Y-46346786D01*
X120175000Y-103550000D02*
X124950000Y-103550000D01*
X118325000Y-105400000D02*
X118325000Y-122400000D01*
X118325000Y-105400000D02*
X120175000Y-103550000D01*
X112100000Y-55800000D02*
X118325000Y-62025000D01*
X118325000Y-122400000D02*
X120874100Y-119850900D01*
X118325000Y-62800000D02*
X118325000Y-62675000D01*
X118325000Y-71400000D02*
X118325000Y-88400000D01*
X118325000Y-88400000D02*
X118325000Y-105400000D01*
X125050000Y-69550000D02*
X126300000Y-70800000D01*
X118325000Y-88400000D02*
X120175000Y-86550000D01*
X123950900Y-119850900D02*
X126100000Y-122000000D01*
X147875000Y-77600000D02*
X146664500Y-76389500D01*
X146664500Y-76389500D02*
X146664500Y-70164500D01*
X146664500Y-70164500D02*
X143300000Y-66800000D01*
X136325000Y-92400000D02*
X138175000Y-90550000D01*
X106900000Y-48722000D02*
X106900000Y-34983895D01*
X136325000Y-75400000D02*
X136325000Y-69150435D01*
X143150000Y-90550000D02*
X144300000Y-91700000D01*
X138175000Y-107550000D02*
X142950000Y-107550000D01*
X130974700Y-63800135D02*
X130974700Y-59974700D01*
X136325000Y-92400000D02*
X136325000Y-109400000D01*
X107800000Y-54500000D02*
X105600000Y-52300000D01*
X136325000Y-75400000D02*
X138175000Y-73550000D01*
X136325000Y-75400000D02*
X136325000Y-92400000D01*
X142850000Y-73550000D02*
X144200000Y-74900000D01*
X125500000Y-54500000D02*
X107800000Y-54500000D01*
X136325000Y-69150435D02*
X130974700Y-63800135D01*
X106900000Y-34983895D02*
X108114500Y-33769395D01*
X138874100Y-140850900D02*
X142649100Y-140850900D01*
X136325000Y-126400000D02*
X136325000Y-143400000D01*
X136325000Y-109400000D02*
X136325000Y-126400000D01*
X130974700Y-59974700D02*
X125500000Y-54500000D01*
X138175000Y-90550000D02*
X143150000Y-90550000D01*
X136325000Y-143400000D02*
X138874100Y-140850900D01*
X136325000Y-126400000D02*
X138175000Y-124550000D01*
X138175000Y-124550000D02*
X142950000Y-124550000D01*
X142649100Y-140850900D02*
X144298200Y-142500000D01*
X105600000Y-52300000D02*
X105600000Y-50022000D01*
X144298200Y-142500000D02*
X144800000Y-142500000D01*
X108114500Y-33769395D02*
X108114500Y-32231100D01*
X138175000Y-73550000D02*
X142850000Y-73550000D01*
X106844500Y-48777500D02*
X106900000Y-48722000D01*
X105600000Y-50022000D02*
X106844500Y-48777500D01*
X142950000Y-124550000D02*
X144200000Y-125800000D01*
X142950000Y-107550000D02*
X144100000Y-108700000D01*
X136325000Y-109400000D02*
X138175000Y-107550000D01*
X39875000Y-89600000D02*
X38664500Y-88389500D01*
X38664500Y-82364500D02*
X35300000Y-79000000D01*
X38664500Y-88389500D02*
X38664500Y-82364500D01*
X57750000Y-79050000D02*
X53300000Y-74600000D01*
X57750000Y-85475000D02*
X57750000Y-79050000D01*
X57875000Y-85600000D02*
X57750000Y-85475000D01*
X75750000Y-82475000D02*
X75750000Y-76150000D01*
X75875000Y-82600000D02*
X75750000Y-82475000D01*
X75750000Y-76150000D02*
X71400000Y-71800000D01*
X93875000Y-81600000D02*
X92664500Y-80389500D01*
X92664500Y-80389500D02*
X92664500Y-74164500D01*
X92664500Y-74164500D02*
X89500000Y-71000000D01*
X111875000Y-88600000D02*
X111750000Y-88475000D01*
X111750000Y-88475000D02*
X111750000Y-82450000D01*
X111750000Y-82450000D02*
X107300000Y-78000000D01*
X129750000Y-84550000D02*
X125200000Y-80000000D01*
X129875000Y-90600000D02*
X129750000Y-90475000D01*
X129750000Y-90475000D02*
X129750000Y-84550000D01*
X147875000Y-94600000D02*
X147750000Y-94475000D01*
X147875000Y-94600000D02*
X149300000Y-94600000D01*
X147750000Y-94475000D02*
X147750000Y-88250000D01*
X147750000Y-88250000D02*
X143500000Y-84000000D01*
X35989500Y-102714500D02*
X35744856Y-102714500D01*
X34535500Y-96664500D02*
X35200000Y-96000000D01*
X35744856Y-102714500D02*
X34535500Y-101505144D01*
X39875000Y-106600000D02*
X35989500Y-102714500D01*
X57750000Y-102475000D02*
X57750000Y-96550000D01*
X57750000Y-96550000D02*
X53200000Y-92000000D01*
X57875000Y-102600000D02*
X57750000Y-102475000D01*
X75875000Y-99600000D02*
X75750000Y-99475000D01*
X75750000Y-93550000D02*
X71200000Y-89000000D01*
X75750000Y-99475000D02*
X75750000Y-93550000D01*
X93750000Y-98475000D02*
X93750000Y-92350000D01*
X93875000Y-98600000D02*
X93750000Y-98475000D01*
X93750000Y-92350000D02*
X89300000Y-87900000D01*
X111750000Y-105475000D02*
X111750000Y-99450000D01*
X111750000Y-99450000D02*
X107200000Y-94900000D01*
X111875000Y-105600000D02*
X111750000Y-105475000D01*
X129750000Y-101550000D02*
X125200000Y-97000000D01*
X129875000Y-107600000D02*
X129750000Y-107475000D01*
X129750000Y-107475000D02*
X129750000Y-101550000D01*
X147875000Y-111600000D02*
X147750000Y-111475000D01*
X147750000Y-111475000D02*
X147750000Y-105450000D01*
X147750000Y-105450000D02*
X143300000Y-101000000D01*
X38664500Y-122389500D02*
X38664500Y-116464500D01*
X39875000Y-123600000D02*
X38664500Y-122389500D01*
X38664500Y-116464500D02*
X35200000Y-113000000D01*
X57100000Y-112900000D02*
X53200000Y-109000000D01*
X57100000Y-118825000D02*
X57100000Y-112900000D01*
X57875000Y-119600000D02*
X57100000Y-118825000D01*
X75750000Y-110250000D02*
X71300000Y-105800000D01*
X75750000Y-116475000D02*
X75750000Y-110250000D01*
X75875000Y-116600000D02*
X75750000Y-116475000D01*
X93875000Y-115600000D02*
X93750000Y-115475000D01*
X93750000Y-109550000D02*
X89200000Y-105000000D01*
X93750000Y-115475000D02*
X93750000Y-109550000D01*
X110664500Y-121389500D02*
X110664500Y-115364500D01*
X111875000Y-122600000D02*
X110664500Y-121389500D01*
X110664500Y-115364500D02*
X107200000Y-111900000D01*
X129750000Y-118550000D02*
X125200000Y-114000000D01*
X129875000Y-124600000D02*
X129750000Y-124475000D01*
X129750000Y-124475000D02*
X129750000Y-118550000D01*
X147875000Y-128600000D02*
X147750000Y-128475000D01*
X147750000Y-122550000D02*
X143300000Y-118100000D01*
X147750000Y-128475000D02*
X147750000Y-122550000D01*
X38664500Y-139389500D02*
X38664500Y-133264500D01*
X38664500Y-133264500D02*
X35300000Y-129900000D01*
X57750000Y-136475000D02*
X57750000Y-130450000D01*
X57875000Y-136600000D02*
X57750000Y-136475000D01*
X57750000Y-130450000D02*
X53300000Y-126000000D01*
X75875000Y-133600000D02*
X75750000Y-133475000D01*
X75750000Y-127550000D02*
X71200000Y-123000000D01*
X75750000Y-133475000D02*
X75750000Y-127550000D01*
X93750000Y-132475000D02*
X93750000Y-126450000D01*
X93750000Y-126450000D02*
X89300000Y-122000000D01*
X93875000Y-132600000D02*
X93750000Y-132475000D01*
X111750000Y-139475000D02*
X111750000Y-133450000D01*
X111875000Y-139600000D02*
X111750000Y-139475000D01*
X111750000Y-133450000D02*
X107300000Y-129000000D01*
X129875000Y-141600000D02*
X129750000Y-141475000D01*
X129750000Y-141475000D02*
X129750000Y-135550000D01*
X129750000Y-135550000D02*
X125200000Y-131000000D01*
X146664500Y-144389500D02*
X146664500Y-138464500D01*
X147875000Y-145600000D02*
X146664500Y-144389500D01*
X146664500Y-138464500D02*
X143300000Y-135100000D01*
X39400000Y-46900000D02*
X35300000Y-42800000D01*
X39875000Y-55600000D02*
X39400000Y-55125000D01*
X39400000Y-55125000D02*
X39400000Y-46900000D01*
X56700000Y-50425000D02*
X56700000Y-44300000D01*
X56700000Y-44300000D02*
X53200000Y-40800000D01*
X57875000Y-51600000D02*
X56700000Y-50425000D01*
X74664500Y-41464500D02*
X71000000Y-37800000D01*
X75875000Y-48600000D02*
X74664500Y-47389500D01*
X74664500Y-47389500D02*
X74664500Y-41464500D01*
X93875000Y-47600000D02*
X93750000Y-47475000D01*
X93750000Y-41750000D02*
X89000000Y-37000000D01*
X93750000Y-47475000D02*
X93750000Y-41750000D01*
X136054500Y-33769395D02*
X136054500Y-32231100D01*
X134784500Y-48777500D02*
X134784500Y-35039395D01*
X134784500Y-35039395D02*
X136054500Y-33769395D01*
X133514500Y-34085500D02*
X133514500Y-32231100D01*
X147700000Y-59900000D02*
X147700000Y-53700000D01*
X147700000Y-53700000D02*
X144700000Y-50700000D01*
X132244500Y-35355500D02*
X133514500Y-34085500D01*
X132244500Y-48777500D02*
X132244500Y-35355500D01*
X38400000Y-95600000D02*
X38000000Y-96000000D01*
X117000000Y-33542000D02*
X117004500Y-33537500D01*
X97850000Y-60718628D02*
X97850000Y-81750000D01*
X92100000Y-87500000D02*
X92100000Y-87900000D01*
X97850000Y-81750000D02*
X92100000Y-87500000D01*
X38400000Y-94700000D02*
X38400000Y-95600000D01*
X92300000Y-87700000D02*
X92100000Y-87900000D01*
X98700000Y-52500000D02*
X98700000Y-59868628D01*
X101524263Y-49675737D02*
X98700000Y-52500000D01*
X110000000Y-93600000D02*
X110000000Y-94900000D01*
X98700000Y-59868628D02*
X97850000Y-60718628D01*
X118274500Y-47451100D02*
X117000000Y-46176600D01*
X146500000Y-99500000D02*
X146500000Y-100600000D01*
X92300000Y-86600000D02*
X92300000Y-87700000D01*
X128500000Y-96500000D02*
X128000000Y-97000000D01*
X128500000Y-95700000D02*
X128500000Y-96500000D01*
X74200000Y-87600000D02*
X74200000Y-88800000D01*
X117000000Y-46176600D02*
X117000000Y-33542000D01*
X101575734Y-49675737D02*
X101524263Y-49675737D01*
X74200000Y-88800000D02*
X74000000Y-89000000D01*
X56000000Y-90700000D02*
X56000000Y-92000000D01*
X146500000Y-100600000D02*
X146100000Y-101000000D01*
X98650000Y-92550000D02*
X98650000Y-115450000D01*
X113194500Y-49009395D02*
X113194500Y-47451100D01*
X128600000Y-130400000D02*
X128000000Y-131000000D01*
X103200000Y-49700000D02*
X103200000Y-49900000D01*
X92700000Y-121400000D02*
X92100000Y-122000000D01*
X98650000Y-115450000D02*
X92100000Y-122000000D01*
X146600000Y-134600000D02*
X146100000Y-135100000D01*
X99500000Y-53600000D02*
X99500000Y-60200000D01*
X38400000Y-128600000D02*
X38400000Y-129600000D01*
X113194500Y-47451100D02*
X111900000Y-46156600D01*
X74200000Y-121700000D02*
X74200000Y-122800000D01*
X110400000Y-128700000D02*
X110100000Y-129000000D01*
X103200000Y-49900000D02*
X99500000Y-53600000D01*
X56400000Y-124700000D02*
X56400000Y-125700000D01*
X111900000Y-46156600D02*
X111900000Y-33562000D01*
X98700000Y-92500000D02*
X98650000Y-92550000D01*
X56400000Y-125700000D02*
X56100000Y-126000000D01*
X92700000Y-120600000D02*
X92700000Y-121400000D01*
X128600000Y-129600000D02*
X128600000Y-130400000D01*
X38400000Y-129600000D02*
X38100000Y-129900000D01*
X146600000Y-133600000D02*
X146600000Y-134600000D01*
X74200000Y-122800000D02*
X74000000Y-123000000D01*
X111900000Y-33562000D02*
X111924500Y-33537500D01*
X110400000Y-127700000D02*
X110400000Y-128700000D01*
X98700000Y-61000000D02*
X98700000Y-92500000D01*
X99500000Y-60200000D02*
X98700000Y-61000000D01*
X110654500Y-47451100D02*
X109384500Y-46181100D01*
X109384500Y-46181100D02*
X109384500Y-33537500D01*
X56300000Y-108700000D02*
X56000000Y-109000000D01*
X128600000Y-113400000D02*
X128000000Y-114000000D01*
X56300000Y-107700000D02*
X56300000Y-108700000D01*
X38500000Y-112500000D02*
X38000000Y-113000000D01*
X110300000Y-111600000D02*
X110000000Y-111900000D01*
X146500000Y-116700000D02*
X146500000Y-117700000D01*
X92700000Y-104300000D02*
X92000000Y-105000000D01*
X74200000Y-105700000D02*
X74100000Y-105800000D01*
X110300000Y-110600000D02*
X110300000Y-111600000D01*
X98250000Y-98750000D02*
X92000000Y-105000000D01*
X98250000Y-60884314D02*
X98250000Y-98750000D01*
X92700000Y-103600000D02*
X92700000Y-104300000D01*
X114500000Y-46216600D02*
X114500000Y-33573000D01*
X99100000Y-60034314D02*
X98250000Y-60884314D01*
X99100000Y-53000000D02*
X99100000Y-60034314D01*
X102400000Y-49700000D02*
X99100000Y-53000000D01*
X38500000Y-111800000D02*
X38500000Y-112500000D01*
X128600000Y-112700000D02*
X128600000Y-113400000D01*
X74200000Y-104600000D02*
X74200000Y-105700000D01*
X146500000Y-117700000D02*
X146100000Y-118100000D01*
X114500000Y-33573000D02*
X114464500Y-33537500D01*
X115734500Y-47451100D02*
X114500000Y-46216600D01*
X56800000Y-73900000D02*
X56100000Y-74600000D01*
X74500000Y-71500000D02*
X74200000Y-71800000D01*
X97450000Y-67350000D02*
X97450000Y-60600000D01*
X98300000Y-52051470D02*
X98300000Y-59702942D01*
X146700000Y-83600000D02*
X146300000Y-84000000D01*
X120814500Y-47451100D02*
X119544500Y-46181100D01*
X38700000Y-77600000D02*
X38700000Y-78400000D01*
X100725733Y-49625737D02*
X98300000Y-52051470D01*
X98300000Y-59702942D02*
X97450000Y-60552942D01*
X97450000Y-60552942D02*
X97450000Y-60600000D01*
X119544500Y-46181100D02*
X119544500Y-33537500D01*
X97450000Y-60600000D02*
X97450000Y-60550000D01*
X110600000Y-76700000D02*
X110600000Y-77500000D01*
X93800000Y-71000000D02*
X97450000Y-67350000D01*
X74500000Y-70500000D02*
X74500000Y-71500000D01*
X93000000Y-70300000D02*
X92300000Y-71000000D01*
X38700000Y-78400000D02*
X38100000Y-79000000D01*
X146700000Y-82700000D02*
X146700000Y-83600000D01*
X92300000Y-71000000D02*
X93800000Y-71000000D01*
X100725734Y-49625737D02*
X100725733Y-49625737D01*
X128600000Y-79400000D02*
X128000000Y-80000000D01*
X93000000Y-69500000D02*
X93000000Y-70300000D01*
X110600000Y-77500000D02*
X110100000Y-78000000D01*
X56800000Y-73600000D02*
X56800000Y-73900000D01*
X128600000Y-78600000D02*
X128600000Y-79400000D01*
X40300000Y-42800000D02*
X38100000Y-42800000D01*
X56195300Y-40604700D02*
X56000000Y-40800000D01*
X92200000Y-36600000D02*
X91800000Y-37000000D01*
X93000000Y-37100000D02*
X92900000Y-37000000D01*
X73800000Y-37800000D02*
X74000000Y-37800000D01*
X125894500Y-47451100D02*
X125894500Y-34807500D01*
X92900000Y-37000000D02*
X91800000Y-37000000D01*
X57700000Y-40604700D02*
X56195300Y-40604700D01*
X75300000Y-37600000D02*
X75100000Y-37800000D01*
X125894500Y-34807500D02*
X124624500Y-33537500D01*
X75100000Y-37800000D02*
X73800000Y-37800000D01*
X102800000Y-36600000D02*
X92200000Y-36600000D01*
X110500000Y-58600000D02*
X110100000Y-59000000D01*
X110500000Y-57500000D02*
X110500000Y-58600000D01*
X146500000Y-66400000D02*
X146100000Y-66800000D01*
X57750000Y-68475000D02*
X57750000Y-62650000D01*
X38300000Y-60700000D02*
X38300000Y-61600000D01*
X92500000Y-53300000D02*
X92000000Y-53800000D01*
X57875000Y-68600000D02*
X57750000Y-68475000D01*
X123354500Y-47451100D02*
X123354500Y-34807500D01*
X74600000Y-53600000D02*
X74600000Y-54500000D01*
X128500000Y-60600000D02*
X128100000Y-61000000D01*
X146700000Y-65200000D02*
X146700000Y-66400000D01*
X56500000Y-57400000D02*
X55900000Y-58000000D01*
X56500000Y-56600000D02*
X56500000Y-57400000D01*
X74600000Y-54500000D02*
X74100000Y-55000000D01*
X57750000Y-62650000D02*
X53100000Y-58000000D01*
X92500000Y-52400000D02*
X92500000Y-53300000D01*
X128500000Y-59300000D02*
X128500000Y-60600000D01*
X38300000Y-61600000D02*
X38000000Y-61900000D01*
X123354500Y-34807500D02*
X122084500Y-33537500D01*
M02*
