M48
; DRILL file {KiCad 8.0.3} date 2024-11-05T20:03:29+0100
; FORMAT={-:-/ absolute / metric / decimal}
; #@! TF.CreationDate,2024-11-05T20:03:29+01:00
; #@! TF.GenerationSoftware,Kicad,Pcbnew,8.0.3
; #@! TF.FileFunction,Plated,1,2,PTH
FMAT,2
METRIC
; #@! TA.AperFunction,Plated,PTH,ViaDrill
T1C0.300
; #@! TA.AperFunction,Plated,PTH,ComponentDrill
T2C0.813
; #@! TA.AperFunction,Plated,PTH,ComponentDrill
T3C0.900
%
G90
G05
T1
X32.6Y-41.6
X36.2Y-52.6
X36.2Y-120.8
X36.3Y-69.8
X36.3Y-104.0
X36.3Y-137.6
X36.7Y-86.8
X38.3Y-60.7
X38.4Y-94.7
X38.4Y-128.6
X38.5Y-111.8
X38.7Y-77.6
X40.3Y-42.8
X47.3Y-41.7
X54.2Y-48.4
X54.3Y-116.9
X54.3Y-133.6
X54.4Y-82.7
X54.5Y-65.7
X54.5Y-100.0
X56.0Y-90.7
X56.3Y-107.7
X56.4Y-124.7
X56.5Y-56.6
X56.8Y-73.6
X57.7Y-40.605
X63.323Y-39.928
X72.0Y-113.7
X72.1Y-79.7
X72.2Y-96.9
X72.4Y-45.8
X72.4Y-62.7
X72.4Y-130.8
X74.2Y-87.6
X74.2Y-104.6
X74.2Y-121.7
X74.5Y-70.5
X74.6Y-53.6
X75.3Y-37.6
X90.2Y-113.1
X90.4Y-44.8
X90.4Y-129.9
X90.5Y-78.8
X90.7Y-61.8
X90.7Y-95.8
X92.3Y-86.6
X92.5Y-52.4
X92.7Y-103.6
X92.7Y-120.6
X93.0Y-37.1
X93.0Y-69.5
X100.726Y-49.626
X101.576Y-49.676
X102.4Y-49.7
X102.8Y-36.6
X103.2Y-49.7
X104.0Y-49.7
X104.9Y-49.7
X108.3Y-102.8
X108.3Y-119.9
X108.4Y-68.9
X108.5Y-86.1
X108.6Y-136.8
X108.784Y-38.4
X110.0Y-93.6
X110.3Y-110.6
X110.4Y-127.7
X110.5Y-57.5
X110.6Y-76.7
X111.3Y-38.3
X113.9Y-38.2
X116.4Y-38.4
X118.944Y-38.5
X122.5Y-38.4
X126.1Y-122.0
X126.2Y-87.9
X126.3Y-70.8
X126.4Y-105.0
X126.6Y-138.8
X128.5Y-59.3
X128.5Y-95.7
X128.6Y-78.6
X128.6Y-112.7
X128.6Y-129.6
X144.1Y-108.7
X144.2Y-74.9
X144.2Y-125.8
X144.3Y-91.7
X144.8Y-142.5
X146.5Y-99.5
X146.5Y-116.7
X146.6Y-133.6
X146.7Y-65.2
X146.7Y-82.7
T2
X106.844Y-33.538
X106.844Y-48.777
X108.114Y-32.231
X108.114Y-47.451
X109.384Y-33.538
X109.384Y-48.777
X110.654Y-32.231
X110.654Y-47.451
X111.924Y-33.538
X111.924Y-48.777
X113.194Y-32.231
X113.194Y-47.451
X114.465Y-33.538
X114.465Y-48.777
X115.734Y-32.231
X115.734Y-47.451
X117.004Y-33.538
X117.004Y-48.777
X118.274Y-32.231
X118.274Y-47.451
X119.544Y-33.538
X119.544Y-48.777
X120.814Y-32.231
X120.814Y-47.451
X122.084Y-33.538
X122.084Y-48.777
X123.354Y-32.231
X123.354Y-47.451
X124.624Y-33.538
X124.624Y-48.777
X125.894Y-32.231
X125.894Y-47.451
X127.164Y-33.538
X127.164Y-48.777
X128.434Y-32.231
X128.434Y-47.451
X129.704Y-33.538
X129.704Y-48.777
X130.975Y-32.231
X130.975Y-47.451
X132.244Y-33.538
X132.244Y-48.777
X133.514Y-32.231
X133.514Y-47.451
X134.784Y-33.538
X134.784Y-48.777
X136.054Y-32.231
X136.054Y-47.451
T3
X139.4Y-55.3G85X139.8Y-55.3
G05
X139.8Y-55.3G85X139.4Y-55.3
G05
X140.5Y-50.7G85X140.9Y-50.7
G05
X140.9Y-59.9G85X140.5Y-59.9
G05
X144.5Y-50.7G85X144.9Y-50.7
G05
X144.9Y-59.9G85X144.5Y-59.9
G05
X147.5Y-50.7G85X147.9Y-50.7
G05
X147.9Y-59.9G85X147.5Y-59.9
G05
M30
